<?xml version="1.0" standalone="no"?><!DOCTYPE svg PUBLIC "-//W3C//DTD SVG 1.1//EN" "http://www.w3.org/Graphics/SVG/1.1/DTD/svg11.dtd"><svg t="1630687767903" class="icon" viewBox="0 0 1024 1024" version="1.1" xmlns="http://www.w3.org/2000/svg" p-id="10164" xmlns:xlink="http://www.w3.org/1999/xlink" width="200" height="200"><defs><style type="text/css"></style></defs><path d="M16 0v1024" fill="" p-id="10165"></path><path d="M32 0v1024" fill="" p-id="10166"></path><path d="M48 0v1024" fill="" p-id="10167"></path><path d="M64 0v1024" fill="" p-id="10168"></path><path d="M80 0v1024" fill="" p-id="10169"></path><path d="M96 0v1024" fill="" p-id="10170"></path><path d="M112 0v1024" fill="" p-id="10171"></path><path d="M128 0v1024" fill="" p-id="10172"></path><path d="M144 0v1024" fill="" p-id="10173"></path><path d="M160 0v1024" fill="" p-id="10174"></path><path d="M176 0v1024" fill="" p-id="10175"></path><path d="M192 0v1024" fill="" p-id="10176"></path><path d="M208 0v1024" fill="" p-id="10177"></path><path d="M224 0v1024" fill="" p-id="10178"></path><path d="M240 0v1024" fill="" p-id="10179"></path><path d="M256 0v1024" fill="" p-id="10180"></path><path d="M272 0v1024" fill="" p-id="10181"></path><path d="M288 0v1024" fill="" p-id="10182"></path><path d="M304 0v1024" fill="" p-id="10183"></path><path d="M320 0v1024" fill="" p-id="10184"></path><path d="M336 0v1024" fill="" p-id="10185"></path><path d="M352 0v1024" fill="" p-id="10186"></path><path d="M368 0v1024" fill="" p-id="10187"></path><path d="M384 0v1024" fill="" p-id="10188"></path><path d="M400 0v1024" fill="" p-id="10189"></path><path d="M416 0v1024" fill="" p-id="10190"></path><path d="M432 0v1024" fill="" p-id="10191"></path><path d="M448 0v1024" fill="" p-id="10192"></path><path d="M464 0v1024" fill="" p-id="10193"></path><path d="M480 0v1024" fill="" p-id="10194"></path><path d="M496 0v1024" fill="" p-id="10195"></path><path d="M512 0v1024" fill="" p-id="10196"></path><path d="M528 0v1024" fill="" p-id="10197"></path><path d="M544 0v1024" fill="" p-id="10198"></path><path d="M560 0v1024" fill="" p-id="10199"></path><path d="M576 0v1024" fill="" p-id="10200"></path><path d="M592 0v1024" fill="" p-id="10201"></path><path d="M608 0v1024" fill="" p-id="10202"></path><path d="M624 0v1024" fill="" p-id="10203"></path><path d="M640 0v1024" fill="" p-id="10204"></path><path d="M656 0v1024" fill="" p-id="10205"></path><path d="M672 0v1024" fill="" p-id="10206"></path><path d="M688 0v1024" fill="" p-id="10207"></path><path d="M704 0v1024" fill="" p-id="10208"></path><path d="M720 0v1024" fill="" p-id="10209"></path><path d="M736 0v1024" fill="" p-id="10210"></path><path d="M752 0v1024" fill="" p-id="10211"></path><path d="M768 0v1024" fill="" p-id="10212"></path><path d="M784 0v1024" fill="" p-id="10213"></path><path d="M800 0v1024" fill="" p-id="10214"></path><path d="M816 0v1024" fill="" p-id="10215"></path><path d="M832 0v1024" fill="" p-id="10216"></path><path d="M848 0v1024" fill="" p-id="10217"></path><path d="M864 0v1024" fill="" p-id="10218"></path><path d="M880 0v1024" fill="" p-id="10219"></path><path d="M896 0v1024" fill="" p-id="10220"></path><path d="M912 0v1024" fill="" p-id="10221"></path><path d="M928 0v1024" fill="" p-id="10222"></path><path d="M944 0v1024" fill="" p-id="10223"></path><path d="M960 0v1024" fill="" p-id="10224"></path><path d="M976 0v1024" fill="" p-id="10225"></path><path d="M992 0v1024" fill="" p-id="10226"></path><path d="M1008 0v1024M0 16h1024" fill="" p-id="10227"></path><path d="M0 32h1024" fill="" p-id="10228"></path><path d="M0 48h1024" fill="" p-id="10229"></path><path d="M0 64h1024" fill="" p-id="10230"></path><path d="M0 80h1024" fill="" p-id="10231"></path><path d="M0 96h1024" fill="" p-id="10232"></path><path d="M0 112h1024" fill="" p-id="10233"></path><path d="M0 128h1024" fill="" p-id="10234"></path><path d="M0 144h1024" fill="" p-id="10235"></path><path d="M0 160h1024" fill="" p-id="10236"></path><path d="M0 176h1024" fill="" p-id="10237"></path><path d="M0 192h1024" fill="" p-id="10238"></path><path d="M0 208h1024" fill="" p-id="10239"></path><path d="M0 224h1024" fill="" p-id="10240"></path><path d="M0 240h1024" fill="" p-id="10241"></path><path d="M0 256h1024" fill="" p-id="10242"></path><path d="M0 272h1024" fill="" p-id="10243"></path><path d="M0 288h1024" fill="" p-id="10244"></path><path d="M0 304h1024" fill="" p-id="10245"></path><path d="M0 320h1024" fill="" p-id="10246"></path><path d="M0 336h1024" fill="" p-id="10247"></path><path d="M0 352h1024" fill="" p-id="10248"></path><path d="M0 368h1024" fill="" p-id="10249"></path><path d="M0 384h1024" fill="" p-id="10250"></path><path d="M0 400h1024" fill="" p-id="10251"></path><path d="M0 416h1024" fill="" p-id="10252"></path><path d="M0 432h1024" fill="" p-id="10253"></path><path d="M0 448h1024" fill="" p-id="10254"></path><path d="M0 464h1024" fill="" p-id="10255"></path><path d="M0 480h1024" fill="" p-id="10256"></path><path d="M0 496h1024" fill="" p-id="10257"></path><path d="M0 512h1024" fill="" p-id="10258"></path><path d="M0 528h1024" fill="" p-id="10259"></path><path d="M0 544h1024" fill="" p-id="10260"></path><path d="M0 560h1024" fill="" p-id="10261"></path><path d="M0 576h1024" fill="" p-id="10262"></path><path d="M0 592h1024" fill="" p-id="10263"></path><path d="M0 608h1024" fill="" p-id="10264"></path><path d="M0 624h1024" fill="" p-id="10265"></path><path d="M0 640h1024" fill="" p-id="10266"></path><path d="M0 656h1024" fill="" p-id="10267"></path><path d="M0 672h1024" fill="" p-id="10268"></path><path d="M0 688h1024" fill="" p-id="10269"></path><path d="M0 704h1024" fill="" p-id="10270"></path><path d="M0 720h1024" fill="" p-id="10271"></path><path d="M0 736h1024" fill="" p-id="10272"></path><path d="M0 752h1024" fill="" p-id="10273"></path><path d="M0 768h1024" fill="" p-id="10274"></path><path d="M0 784h1024" fill="" p-id="10275"></path><path d="M0 800h1024" fill="" p-id="10276"></path><path d="M0 816h1024" fill="" p-id="10277"></path><path d="M0 832h1024" fill="" p-id="10278"></path><path d="M0 848h1024" fill="" p-id="10279"></path><path d="M0 864h1024" fill="" p-id="10280"></path><path d="M0 880h1024" fill="" p-id="10281"></path><path d="M0 896h1024" fill="" p-id="10282"></path><path d="M0 912h1024" fill="" p-id="10283"></path><path d="M0 928h1024" fill="" p-id="10284"></path><path d="M0 944h1024" fill="" p-id="10285"></path><path d="M0 960h1024" fill="" p-id="10286"></path><path d="M0 976h1024" fill="" p-id="10287"></path><path d="M0 992h1024" fill="" p-id="10288"></path><path d="M0 1008h1024" fill="" p-id="10289"></path><path d="M1024 938.667c0 47.147-38.187 85.333-85.333 85.333H85.334C38.187 1024 0.001 985.813 0.001 938.667V85.334C0.001 38.187 38.188 0.001 85.334 0.001h853.333C985.814 0.001 1024 38.188 1024 85.334v853.333z" fill="#D66247" p-id="10290"></path><path d="M278.146 396.437c-8.403-6.806-20.174-10.208-35.313-10.208h-59.792v90.417h59.792c15.139 0 26.91-3.681 35.313-11.042s12.604-19.028 12.604-35c0-15.972-4.201-27.361-12.604-34.167z m48.646 110.625c-18.333 15-44.514 22.5-78.542 22.5h-65.208v110.417h-63.75V332.896h133.75c30.833 0 55.417 7.917 73.75 23.75s27.5 40.347 27.5 73.542c0 36.25-9.167 61.875-27.5 76.875z m137.916-120.833v200.417h59.167c30.278 0 51.389-14.93 63.333-44.792 6.528-16.389 9.792-35.903 9.792-58.542 0-31.25-4.896-55.243-14.687-71.979s-29.271-25.104-58.437-25.104h-59.167z m117.5-46.667c21.528 7.083 38.958 20.069 52.292 38.958 10.694 15.278 17.986 31.805 21.875 49.583s5.833 34.722 5.833 50.833c0 40.834-8.194 75.417-24.583 103.75-22.222 38.195-56.528 57.292-102.917 57.292H402.416V332.895h132.292c19.028 0.278 34.861 2.5 47.5 6.667z m128.334-6.25H928.25v53.958H774.292v70.625h134.792v53.333H774.292v128.75h-63.75V333.311z" fill="#FFFFFF" p-id="10291"></path></svg>